<svg width="46" height="46" viewBox="0 0 46 46" fill="none" xmlns="http://www.w3.org/2000/svg">
<path fill-rule="evenodd" clip-rule="evenodd" d="M7 7H27V12H19H12V19V27H7V7ZM12 34H7H0V27V7V0H7H27H34V7V12H39H46V19V39V46H39H19H12V39V34ZM34 19H39V39H19V34H27H34V27V19ZM27 19V27H19V19H27Z" fill="#0D3C68"/>
<rect x="12" y="12" width="22" height="22" fill="#0D3C68"/>
<path d="M23.584 31.168C22.352 31.168 21.248 30.968 20.272 30.568C19.296 30.168 18.512 29.576 17.92 28.792C17.344 28.008 17.04 27.064 17.008 25.96H21.376C21.44 26.584 21.656 27.064 22.024 27.4C22.392 27.72 22.872 27.88 23.464 27.88C24.072 27.88 24.552 27.744 24.904 27.472C25.256 27.184 25.432 26.792 25.432 26.296C25.432 25.88 25.288 25.536 25 25.264C24.728 24.992 24.384 24.768 23.968 24.592C23.568 24.416 22.992 24.216 22.24 23.992C21.152 23.656 20.264 23.32 19.576 22.984C18.888 22.648 18.296 22.152 17.8 21.496C17.304 20.84 17.056 19.984 17.056 18.928C17.056 17.36 17.624 16.136 18.76 15.256C19.896 14.36 21.376 13.912 23.2 13.912C25.056 13.912 26.552 14.36 27.688 15.256C28.824 16.136 29.432 17.368 29.512 18.952H25.072C25.04 18.408 24.84 17.984 24.472 17.68C24.104 17.36 23.632 17.2 23.056 17.2C22.56 17.2 22.16 17.336 21.856 17.608C21.552 17.864 21.4 18.24 21.4 18.736C21.4 19.28 21.656 19.704 22.168 20.008C22.68 20.312 23.48 20.64 24.568 20.992C25.656 21.36 26.536 21.712 27.208 22.048C27.896 22.384 28.488 22.872 28.984 23.512C29.48 24.152 29.728 24.976 29.728 25.984C29.728 26.944 29.48 27.816 28.984 28.6C28.504 29.384 27.8 30.008 26.872 30.472C25.944 30.936 24.848 31.168 23.584 31.168Z" fill="white"/>
</svg>
