<svg viewBox="0 0 504 307" fill="none" xmlns="http://www.w3.org/2000/svg">
<g id="blogs" clip-path="url(#clip0_2_2)">
<g id="bg">
<path id="Vector" d="M176.43 20.9172C114.638 53.7932 84.1684 30.9485 45.0917 63.0627C19.8084 83.8274 5.00927 112.183 21.3647 149.954C65.7959 252.525 62.3405 242.063 121.835 262.988C181.329 283.913 164.85 318.292 245.846 303.345C326.843 288.398 426.813 322.78 456.81 266.976C486.807 211.171 409.053 161.732 465.698 130.898C522.344 100.063 495.853 4.67263 342.535 1.68201C257.246 0.0185675 226.491 -5.72164 176.43 20.9172Z" fill="#F8F8FF"/>
<path id="Vector_2" d="M164.047 58.2569C93.8154 80.7267 59.1886 65.1011 14.7743 87.068C-13.9363 101.262 -30.7805 120.649 -12.1945 146.464C38.3102 216.587 34.3829 209.425 101.996 223.738C169.609 238.051 150.877 261.548 242.942 251.329C335.007 241.11 448.63 264.613 482.717 226.464C516.805 188.315 428.431 154.516 492.83 133.436C557.23 112.356 527.103 47.1395 352.868 45.0981C255.898 43.9733 220.945 40.0453 164.047 58.2569Z" fill="#F8F8FF"/>
</g>
<g id="table">
<path id="Vector_3" d="M152.827 67.2823V225.763H392.439L392.682 60.7395L152.827 60.4972V67.2823Z" fill="#E1E6FB"/>
<path id="Vector_4" d="M134.88 81.3371V239.818H374.492L374.735 74.7944L134.88 74.552V81.3371Z" fill="#EAEDFB"/>
<path id="Vector_5" d="M149.189 91.0302C149.189 89.0227 147.56 87.3953 145.551 87.3953C143.542 87.3953 141.914 89.0227 141.914 91.0302C141.914 93.0377 143.542 94.6651 145.551 94.6651C147.56 94.6651 149.189 93.0377 149.189 91.0302Z" fill="#BAC5F4"/>
<path id="Vector_6" d="M160.345 91.0302C160.345 89.0227 158.716 87.3953 156.707 87.3953C154.698 87.3953 153.07 89.0227 153.07 91.0302C153.07 93.0377 154.698 94.6651 156.707 94.6651C158.716 94.6651 160.345 93.0377 160.345 91.0302Z" fill="#BAC5F4"/>
<path id="Vector_7" d="M171.501 91.0302C171.501 89.0227 169.873 87.3953 167.863 87.3953C165.854 87.3953 164.226 89.0227 164.226 91.0302C164.226 93.0377 165.854 94.6651 167.863 94.6651C169.873 94.6651 171.501 93.0377 171.501 91.0302Z" fill="#BAC5F4"/>
<g id="tables" opacity="0.5">
<g id="table 1" opacity="0.5">
<path id="Vector_8" opacity="0.5" d="M148.704 111.143H147.734V160.578H148.704V111.143Z" fill="white"/>
<path id="Vector_9" opacity="0.5" d="M153.07 111.143H152.099V160.578H153.07V111.143Z" fill="white"/>
<path id="Vector_10" opacity="0.5" d="M156.95 111.143H155.98V160.578H156.95V111.143Z" fill="white"/>
<path id="Vector_11" opacity="0.5" d="M161.315 111.143H160.345V160.578H161.315V111.143Z" fill="white"/>
<path id="Vector_12" opacity="0.5" d="M165.196 111.143H164.226V160.578H165.196V111.143Z" fill="white"/>
<path id="Vector_13" opacity="0.5" d="M169.561 111.143H168.591V160.578H169.561V111.143Z" fill="white"/>
<path id="Vector_14" opacity="0.5" d="M173.441 111.143H172.471V160.578H173.441V111.143Z" fill="white"/>
<path id="Vector_15" opacity="0.5" d="M177.322 111.143H176.352V160.578H177.322V111.143Z" fill="white"/>
<path id="Vector_16" opacity="0.5" d="M181.202 111.143H180.232V160.578H181.202V111.143Z" fill="white"/>
<path id="Vector_17" opacity="0.5" d="M185.568 111.143H184.597V160.578H185.568V111.143Z" fill="white"/>
<path id="Vector_18" opacity="0.5" d="M189.448 111.143H188.478V160.578H189.448V111.143Z" fill="white"/>
<path id="Vector_19" opacity="0.5" d="M193.813 111.143H192.843V160.578H193.813V111.143Z" fill="white"/>
<path id="Vector_20" opacity="0.5" d="M197.694 111.143H196.724V160.578H197.694V111.143Z" fill="white"/>
<path id="Vector_21" opacity="0.5" d="M197.694 111.143H147.734V112.113H197.694V111.143Z" fill="white"/>
<path id="Vector_22" opacity="0.5" d="M197.694 115.99H147.734V116.959H197.694V115.99Z" fill="white"/>
<path id="Vector_23" opacity="0.5" d="M197.694 120.836H147.734V121.806H197.694V120.836Z" fill="white"/>
<path id="Vector_24" opacity="0.5" d="M197.694 125.683H147.734V126.652H197.694V125.683Z" fill="white"/>
<path id="Vector_25" opacity="0.5" d="M197.694 130.529H147.734V131.499H197.694V130.529Z" fill="white"/>
<path id="Vector_26" opacity="0.5" d="M197.694 135.376H147.734V136.345H197.694V135.376Z" fill="white"/>
<path id="Vector_27" opacity="0.5" d="M197.694 140.222H147.734V141.192H197.694V140.222Z" fill="white"/>
<path id="Vector_28" opacity="0.5" d="M197.694 145.069H147.734V146.038H197.694V145.069Z" fill="white"/>
<path id="Vector_29" opacity="0.5" d="M197.694 149.915H147.734V150.885H197.694V149.915Z" fill="white"/>
<path id="Vector_30" opacity="0.5" d="M197.694 154.762H147.734V155.731H197.694V154.762Z" fill="white"/>
<path id="Vector_31" opacity="0.5" d="M197.694 159.608H147.734V160.578H197.694V159.608Z" fill="white"/>
</g>
<g id="table 2" opacity="0.5">
<path id="Vector_32" opacity="0.5" d="M209.82 173.179H208.85V222.613H209.82V173.179Z" fill="white"/>
<path id="Vector_33" opacity="0.5" d="M214.185 173.179H213.215V222.613H214.185V173.179Z" fill="white"/>
<path id="Vector_34" opacity="0.5" d="M218.066 173.179H217.095V222.613H218.066V173.179Z" fill="white"/>
<path id="Vector_35" opacity="0.5" d="M222.431 173.179H221.461V222.613H222.431V173.179Z" fill="white"/>
<path id="Vector_36" opacity="0.5" d="M226.311 173.179H225.341V222.613H226.311V173.179Z" fill="white"/>
<path id="Vector_37" opacity="0.5" d="M230.677 173.179H229.707V222.613H230.677V173.179Z" fill="white"/>
<path id="Vector_38" opacity="0.5" d="M234.557 173.179H233.587V222.613H234.557V173.179Z" fill="white"/>
<path id="Vector_39" opacity="0.5" d="M238.437 173.179H237.467V222.613H238.437V173.179Z" fill="white"/>
<path id="Vector_40" opacity="0.5" d="M242.318 173.179H241.348V222.613H242.318V173.179Z" fill="white"/>
<path id="Vector_41" opacity="0.5" d="M246.683 173.179H245.713V222.613H246.683V173.179Z" fill="white"/>
<path id="Vector_42" opacity="0.5" d="M250.564 173.179H249.593V222.613H250.564V173.179Z" fill="white"/>
<path id="Vector_43" opacity="0.5" d="M254.929 173.179H253.959V222.613H254.929V173.179Z" fill="white"/>
<path id="Vector_44" opacity="0.5" d="M258.809 173.179H257.839V222.613H258.809V173.179Z" fill="white"/>
<path id="Vector_45" opacity="0.5" d="M258.809 173.179H208.85V174.148H258.809V173.179Z" fill="white"/>
<path id="Vector_46" opacity="0.5" d="M258.809 178.025H208.85V178.994H258.809V178.025Z" fill="white"/>
<path id="Vector_47" opacity="0.5" d="M258.809 182.872H208.85V183.841H258.809V182.872Z" fill="white"/>
<path id="Vector_48" opacity="0.5" d="M258.809 187.718H208.85V188.687H258.809V187.718Z" fill="white"/>
<path id="Vector_49" opacity="0.5" d="M258.809 192.565H208.85V193.534H258.809V192.565Z" fill="white"/>
<path id="Vector_50" opacity="0.5" d="M258.809 197.411H208.85V198.38H258.809V197.411Z" fill="white"/>
<path id="Vector_51" opacity="0.5" d="M258.809 202.258H208.85V203.227H258.809V202.258Z" fill="white"/>
<path id="Vector_52" opacity="0.5" d="M258.809 207.104H208.85V208.073H258.809V207.104Z" fill="white"/>
<path id="Vector_53" opacity="0.5" d="M258.809 211.951H208.85V212.92H258.809V211.951Z" fill="white"/>
<path id="Vector_54" opacity="0.5" d="M258.809 216.797H208.85V217.766H258.809V216.797Z" fill="white"/>
<path id="Vector_55" opacity="0.5" d="M258.809 221.644H208.85V222.613H258.809V221.644Z" fill="white"/>
</g>
<g id="table 3" opacity="0.5">
<path id="Vector_56" opacity="0.5" d="M264.63 116.474H263.66V165.909H264.63V116.474Z" fill="white"/>
<path id="Vector_57" opacity="0.5" d="M268.995 116.474H268.025V165.909H268.995V116.474Z" fill="white"/>
<path id="Vector_58" opacity="0.5" d="M272.876 116.474H271.905V165.909H272.876V116.474Z" fill="white"/>
<path id="Vector_59" opacity="0.5" d="M277.241 116.474H276.271V165.909H277.241V116.474Z" fill="white"/>
<path id="Vector_60" opacity="0.5" d="M281.121 116.474H280.151V165.909H281.121V116.474Z" fill="white"/>
<path id="Vector_61" opacity="0.5" d="M285.487 116.474H284.517V165.909H285.487V116.474Z" fill="white"/>
<path id="Vector_62" opacity="0.5" d="M289.367 116.474H288.397V165.909H289.367V116.474Z" fill="white"/>
<path id="Vector_63" opacity="0.5" d="M293.247 116.474H292.277V165.909H293.247V116.474Z" fill="white"/>
<path id="Vector_64" opacity="0.5" d="M297.128 116.474H296.158V165.909H297.128V116.474Z" fill="white"/>
<path id="Vector_65" opacity="0.5" d="M301.493 116.474H300.523V165.909H301.493V116.474Z" fill="white"/>
<path id="Vector_66" opacity="0.5" d="M305.373 116.474H304.403V165.909H305.373V116.474Z" fill="white"/>
<path id="Vector_67" opacity="0.5" d="M309.739 116.474H308.769V165.909H309.739V116.474Z" fill="white"/>
<path id="Vector_68" opacity="0.5" d="M313.619 116.474H312.649V165.909H313.619V116.474Z" fill="white"/>
<path id="Vector_69" opacity="0.5" d="M313.619 116.474H263.66V117.444H313.619V116.474Z" fill="white"/>
<path id="Vector_70" opacity="0.5" d="M313.619 121.321H263.66V122.29H313.619V121.321Z" fill="white"/>
<path id="Vector_71" opacity="0.5" d="M313.619 126.167H263.66V127.137H313.619V126.167Z" fill="white"/>
<path id="Vector_72" opacity="0.5" d="M313.619 131.014H263.66V131.983H313.619V131.014Z" fill="white"/>
<path id="Vector_73" opacity="0.5" d="M313.619 135.86H263.66V136.83H313.619V135.86Z" fill="white"/>
<path id="Vector_74" opacity="0.5" d="M313.619 140.707H263.66V141.676H313.619V140.707Z" fill="white"/>
<path id="Vector_75" opacity="0.5" d="M313.619 145.553H263.66V146.523H313.619V145.553Z" fill="white"/>
<path id="Vector_76" opacity="0.5" d="M313.619 150.4H263.66V151.369H313.619V150.4Z" fill="white"/>
<path id="Vector_77" opacity="0.5" d="M313.619 155.246H263.66V156.216H313.619V155.246Z" fill="white"/>
<path id="Vector_78" opacity="0.5" d="M313.619 160.093H263.66V161.062H313.619V160.093Z" fill="white"/>
<path id="Vector_79" opacity="0.5" d="M313.619 164.939H263.66V165.909H313.619V164.939Z" fill="white"/>
</g>
</g>
<path id="Vector_80" d="M242.803 126.652H171.501V176.086H242.803V126.652Z" fill="#BAC5F4"/>
<path id="Vector_81" d="M250.078 132.953H178.777V182.387H250.078V132.953Z" fill="#E1E6FB"/>
<path id="Vector_82" d="M234.072 139.738H193.328V140.707H234.072V139.738Z" fill="white"/>
<path id="Vector_83" d="M226.796 142.161H193.328V143.13H226.796V142.161Z" fill="white"/>
<path id="Vector_84" d="M237.467 144.099H193.328V145.069H237.467V144.099Z" fill="white"/>
<path id="Vector_85" d="M212.73 150.4H193.328V151.369H212.73V150.4Z" fill="white"/>
<path id="Vector_86" d="M222.916 152.823H193.328V153.792H222.916V152.823Z" fill="white"/>
<path id="Vector_87" d="M220.976 154.762H193.328V155.731H220.976V154.762Z" fill="white"/>
<path id="Vector_88" d="M212.73 161.547H193.328V162.516H212.73V161.547Z" fill="white"/>
<path id="Vector_89" d="M222.916 163.97H193.328V164.939H222.916V163.97Z" fill="white"/>
<path id="Vector_90" d="M220.976 165.909H193.328V166.878H220.976V165.909Z" fill="white"/>
<path id="Vector_91" d="M187.265 145.553C189.006 145.553 190.418 144.143 190.418 142.403C190.418 140.663 189.006 139.253 187.265 139.253C185.524 139.253 184.112 140.663 184.112 142.403C184.112 144.143 185.524 145.553 187.265 145.553Z" fill="white"/>
<path id="Vector_92" d="M187.265 155.731C189.006 155.731 190.418 154.321 190.418 152.581C190.418 150.841 189.006 149.431 187.265 149.431C185.524 149.431 184.112 150.841 184.112 152.581C184.112 154.321 185.524 155.731 187.265 155.731Z" fill="white"/>
<path id="Vector_93" d="M187.75 167.363C189.491 167.363 190.903 165.952 190.903 164.212C190.903 162.473 189.491 161.062 187.75 161.062C186.009 161.062 184.597 162.473 184.597 164.212C184.597 165.952 186.009 167.363 187.75 167.363Z" fill="white"/>
<path id="Vector_94" d="M359.698 132.953H324.29V133.922H359.698V132.953Z" fill="white"/>
<path id="Vector_95" d="M359.698 138.284H324.29V139.253H359.698V138.284Z" fill="white"/>
<path id="Vector_96" d="M359.698 143.615H324.29V144.584H359.698V143.615Z" fill="white"/>
<path id="Vector_97" d="M359.698 148.946H324.29V149.915H359.698V148.946Z" fill="white"/>
<path id="Vector_98" d="M359.698 154.277H324.29V155.246H359.698V154.277Z" fill="white"/>
<path id="Vector_99" d="M359.698 159.608H324.29V160.578H359.698V159.608Z" fill="white"/>
<path id="Vector_100" d="M359.698 164.939H324.29V165.909H359.698V164.939Z" fill="white"/>
<path id="Vector_101" d="M359.698 170.271H324.29V171.24H359.698V170.271Z" fill="white"/>
<path id="Vector_102" d="M359.698 175.602H324.29V176.571H359.698V175.602Z" fill="white"/>
<path id="Vector_103" d="M362.609 98.5423H140.458V99.5116H362.609V98.5423Z" fill="white"/>
<path id="Vector_104" d="M341.994 127.137C348.022 127.137 352.908 122.255 352.908 116.232C352.908 110.21 348.022 105.327 341.994 105.327C335.967 105.327 331.081 110.21 331.081 116.232C331.081 122.255 335.967 127.137 341.994 127.137Z" fill="white"/>
</g>
<g id="bulb">
<path id="Vector_105" d="M356.788 71.4018V61.7088C356.788 61.7088 357.758 59.2855 353.393 57.3469C349.028 55.4083 341.267 47.6539 341.752 34.5683C342.237 21.4827 354.363 9.85113 367.944 10.8204C381.525 11.7897 391.226 22.4521 391.711 36.9916C392.196 51.5311 379.1 57.3469 379.1 57.3469C379.1 57.3469 376.675 57.8316 376.675 60.2548V71.4018H356.788Z" fill="#BAC5F4"/>
<path id="Vector_106" d="M335.507 17.0183L334.985 17.8355L343.163 23.0492L343.685 22.2321L335.507 17.0183Z" fill="#BAC5F4"/>
<path id="Vector_107" d="M357.706 0.673537L356.758 0.875397L358.778 10.3559L359.727 10.154L357.706 0.673537Z" fill="#BAC5F4"/>
<path id="Vector_108" d="M385.483 4.56082L384.662 4.04459L379.496 12.2486L380.317 12.7648L385.483 4.56082Z" fill="#BAC5F4"/>
<path id="Vector_109" d="M401.776 26.2638L401.476 25.3421L392.251 28.3422L392.551 29.2639L401.776 26.2638Z" fill="#BAC5F4"/>
<path id="Vector_110" d="M398.014 54.5346L398.527 53.712L390.295 48.5841L389.781 49.4067L398.014 54.5346Z" fill="#BAC5F4"/>
<path id="Vector_111" d="M347.486 67.0032L348.307 67.5199L353.478 59.3186L352.657 58.802L347.486 67.0032Z" fill="#BAC5F4"/>
<path id="Vector_112" d="M331.552 45.3698L331.772 46.3138L341.219 44.1119L340.999 43.1679L331.552 45.3698Z" fill="#BAC5F4"/>
<path id="Vector_113" d="M376.918 71.4018H356.546C355.608 71.4018 354.848 72.1612 354.848 73.0981C354.848 74.0349 355.608 74.7944 356.546 74.7944H376.918C377.855 74.7944 378.615 74.0349 378.615 73.0981C378.615 72.1612 377.855 71.4018 376.918 71.4018Z" fill="#BAC5F4"/>
<path id="Vector_114" d="M376.433 77.7023H357.031C356.093 77.7023 355.333 78.4617 355.333 79.3986C355.333 80.3354 356.093 81.0948 357.031 81.0948H376.433C377.37 81.0948 378.13 80.3354 378.13 79.3986C378.13 78.4617 377.37 77.7023 376.433 77.7023Z" fill="#BAC5F4"/>
<path id="Vector_115" d="M376.675 74.7944H356.788C355.985 74.7944 355.333 75.4453 355.333 76.2483C355.333 77.0513 355.985 77.7023 356.788 77.7023H376.675C377.479 77.7023 378.13 77.0513 378.13 76.2483C378.13 75.4453 377.479 74.7944 376.675 74.7944Z" fill="white"/>
<path id="Vector_116" d="M357.758 81.0948H375.579C375.579 81.0948 375.22 86.9107 366.974 86.9107C358.728 86.9107 359.213 83.5181 357.758 81.0948Z" fill="white"/>
</g>
<g id="message">
<path id="Vector_117" d="M373.537 141.676H430.564C430.815 141.676 431.064 141.729 431.293 141.831C431.523 141.934 431.729 142.083 431.897 142.27C432.065 142.457 432.191 142.678 432.268 142.917C432.345 143.156 432.371 143.409 432.344 143.658L428.371 179.823C428.322 180.261 428.114 180.666 427.786 180.96C427.457 181.254 427.032 181.417 426.591 181.418H369.564C369.313 181.418 369.064 181.365 368.834 181.263C368.605 181.16 368.399 181.011 368.231 180.824C368.063 180.637 367.937 180.416 367.86 180.177C367.783 179.938 367.757 179.685 367.784 179.435L371.757 143.271C371.805 142.832 372.013 142.427 372.341 142.133C372.67 141.839 373.096 141.676 373.537 141.676V141.676Z" fill="#E1E6FB"/>
<path id="Vector_118" d="M369.656 141.676H426.683C426.935 141.676 427.183 141.729 427.413 141.831C427.643 141.934 427.848 142.083 428.016 142.27C428.184 142.457 428.311 142.678 428.388 142.917C428.465 143.156 428.491 143.409 428.463 143.658L424.491 179.823C424.442 180.261 424.233 180.666 423.905 180.96C423.577 181.254 423.152 181.417 422.711 181.418H365.684C365.432 181.418 365.184 181.365 364.954 181.263C364.724 181.16 364.519 181.011 364.351 180.824C364.183 180.637 364.056 180.416 363.979 180.177C363.902 179.938 363.877 179.685 363.904 179.435L367.876 143.271C367.924 142.832 368.132 142.427 368.461 142.133C368.789 141.839 369.215 141.676 369.656 141.676Z" fill="white"/>
<path id="Vector_119" d="M368.914 141.836L392.303 163.486L427.43 141.836H368.914Z" fill="#BAC5F4"/>
</g>
<g id="books">
<path id="Vector_120" d="M328.631 289.243L259.624 289.01C257.82 289.01 256.36 288.923 256.365 287.12L256.399 277.912C256.399 276.128 257.854 276.39 259.629 276.37L328.19 275.682C329.049 275.731 330.489 275.135 332.861 276.167C336.053 277.534 338.342 285.913 331.542 288.797C330.592 289.057 329.615 289.207 328.631 289.243Z" fill="#BAC5F4"/>
<path id="Vector_121" d="M257.5 287.11L275.965 287.178C276.267 287.178 276.556 287.059 276.77 286.846C276.983 286.634 277.104 286.345 277.105 286.044V278.745C277.105 278.444 276.986 278.155 276.773 277.942C276.56 277.728 276.272 277.608 275.97 277.606L257.509 277.543C257.13 277.503 256.748 277.521 256.374 277.597L256.365 287.072C256.742 287.11 257.121 287.123 257.5 287.11V287.11Z" fill="white"/>
<path id="Vector_122" d="M263.64 262.887H332.643C334.447 262.887 335.912 262.965 335.912 264.768V273.976C335.912 275.76 334.457 275.503 332.686 275.527L264.125 276.458C263.272 276.419 261.826 276.065 259.605 275.309C256.316 274.194 253.939 266.28 260.73 263.372C261.678 263.099 262.655 262.936 263.64 262.887Z" fill="#EAEDFB"/>
<path id="Vector_123" d="M334.777 264.778H316.316C316.015 264.778 315.725 264.897 315.512 265.109C315.298 265.322 315.178 265.61 315.176 265.912V273.215C315.178 273.517 315.298 273.805 315.512 274.018C315.725 274.23 316.015 274.349 316.316 274.349H334.777C335.156 274.387 335.539 274.368 335.912 274.291V264.802C335.535 264.765 335.155 264.757 334.777 264.778Z" fill="#B0C0F4"/>
<path id="Vector_124" d="M257.8 251.44H326.803C328.612 251.44 330.072 251.513 330.072 253.316V262.524C330.072 264.312 328.617 264.051 326.846 264.075L258.285 265.005C257.432 264.962 255.986 264.608 253.765 263.852C250.476 262.742 248.099 254.828 254.89 251.92C255.838 251.646 256.815 251.485 257.8 251.44V251.44Z" fill="#BAC5F4"/>
<path id="Vector_125" d="M328.937 253.316H310.476C310.327 253.316 310.179 253.345 310.041 253.402C309.903 253.46 309.777 253.544 309.672 253.649C309.566 253.755 309.483 253.881 309.426 254.019C309.369 254.157 309.341 254.305 309.341 254.455V261.753C309.341 261.902 309.369 262.05 309.426 262.188C309.483 262.326 309.567 262.451 309.672 262.557C309.778 262.662 309.903 262.746 310.041 262.802C310.179 262.859 310.327 262.888 310.476 262.887H328.937C329.316 262.922 329.698 262.904 330.072 262.834V253.35C329.695 253.312 329.316 253.301 328.937 253.316V253.316Z" fill="white"/>
</g>
</g>
<defs>
<clipPath id="clip0_2_2">
<rect width="504" height="307" fill="white"/>
</clipPath>
</defs>
</svg>
