<svg width="504" height="307" viewBox="0 0 566 320" fill="none" xmlns="http://www.w3.org/2000/svg">
<g id="home" clip-path="url(#clip0_3_2)">
<path id="shape" d="M1.57999 319.52C1.57999 319.52 -10.36 221.02 31.43 191.17C67.82 165.17 98.0899 149.38 159.78 147.39C221.47 145.4 255.29 145.39 292.11 104.61C328.93 63.83 378.71 2.21001 434.38 0.140006C488.11 -1.85999 520.94 15.06 551.78 134.46C582.62 253.86 550.78 315.54 549.78 316.53C549.09 317.24 1.57999 319.52 1.57999 319.52Z" fill="#F8F8FF"/>
<g id="Flower">
<path id="Vector" d="M65.84 269.44C65.84 269.44 65.6201 277.6 67.0001 278.51C67.5926 278.975 68.2729 279.315 69.0001 279.51L75.8701 316.58C75.8701 316.58 96.01 320.24 106.08 316.12L112.95 279.5L115.24 278.58L116.16 269.43C116.16 269.43 91.47 261.2 65.84 269.44Z" fill="#E1E6FC"/>
<path id="Vector_2" d="M68.1499 279.27C68.1499 279.27 95.15 281.34 98.34 280.43C101.53 279.52 100.63 272.19 100.63 272.19L113.9 270.82C113.9 270.82 113.9 278.6 112.98 279.52C111.966 280.738 111.189 282.136 110.69 283.64C110.69 284.1 105.2 316.64 105.2 316.64C105.2 316.64 96.5 318.01 95.13 318.01C93.76 318.01 98.79 291.06 98.79 289.17C98.79 287.28 98.79 283.68 97.42 283.68C96.05 283.68 69.58 284.47 69.42 281.52C69.2046 280.67 68.7662 279.893 68.1499 279.27V279.27Z" fill="#BAC4F6"/>
<path id="Vector_3" d="M78.7799 271.15C78.7799 271.15 71.25 265.86 67.25 265.38C63.25 264.9 58.61 264.38 54.61 263.76C50.61 263.14 45.51 261.35 45.61 259.01C45.71 256.67 46.1899 255.55 48.5399 254.16C50.5213 252.87 52.7662 252.04 55.11 251.73C56.87 251.57 74.93 256.26 82.46 267.47L85.46 271.15H78.7799Z" fill="#BAC4F6"/>
<g id="Vector_4">
<path d="M52.71 258.07C52.71 258.07 59.63 257.98 63.42 259.21C66.3831 260.318 69.2552 261.655 72.01 263.21L83.34 271.1" fill="#BAC4F6"/>
<path d="M52.71 258.07C52.71 258.07 59.63 257.98 63.42 259.21C66.3831 260.318 69.2552 261.655 72.01 263.21L83.34 271.1" stroke="white" stroke-width="0.75" stroke-miterlimit="10" stroke-linecap="round"/>
</g>
<path id="Vector_5" d="M86.71 270.84C86.71 270.84 77.9499 258.94 74.5399 255.59C71.1299 252.24 67.14 248.41 63.85 244.91C60.56 241.41 56.4099 236.39 58.1599 234.33C59.9099 232.27 61.16 230.87 64.35 231.33C66.844 231.597 69.2325 232.48 71.2999 233.9C73.0599 235.04 88.9699 250.21 91.2999 267.64L93.59 271.17L86.71 270.84Z" fill="#BAC4F6"/>
<path id="Vector_6" d="M66.13 238.33C66.13 238.33 72.95 242.41 75.63 246.33C78.16 249.99 82.17 256.54 82.17 256.54L86.72 269.03" stroke="white" stroke-width="0.75" stroke-miterlimit="10" stroke-linecap="round"/>
<path id="Vector_7" d="M91.0899 271.43C91.0899 271.43 80.8599 249.22 78.9499 244.83C77.0399 240.44 69.23 233.83 67.5 229.35C65.77 224.87 64.67 221.61 66.5 219.15C68.33 216.69 73.0299 214.65 76.0299 216.15C78.8599 217.53 82.54 221.73 84.12 223.86C85.38 225.54 93.7499 255.71 93.0599 262.67L94.6599 271.58L91.0899 271.43Z" fill="#E9EDFC"/>
<path id="Vector_8" d="M73.07 224.33C73.07 224.33 78.94 231.89 80.72 236.33C82.72 241.33 84.72 250.86 84.46 249.33L90.57 269.96" stroke="white" stroke-width="0.75" stroke-miterlimit="10" stroke-linecap="round"/>
<path id="Vector_9" d="M85.48 271.26C85.48 271.26 76.48 260.99 72.09 259C67.7 257.01 62.71 254.76 58.42 252.62C54.13 250.48 48.98 246.85 49.85 244.67C50.72 242.49 51.61 241.61 54.71 241.2C57.4184 240.742 60.1903 240.817 62.8701 241.42C64.8701 241.94 83.6701 253.3 88.5001 266.79L90.73 271.44L85.48 271.26Z" fill="#E9EDFC"/>
<path id="Vector_10" d="M58.1499 246.53C58.1499 246.53 65.94 249.09 69.81 251.71C72.7569 253.867 75.5503 256.226 78.17 258.77L86.81 271.35" stroke="white" stroke-width="0.75" stroke-miterlimit="10" stroke-linecap="round"/>
<path id="Vector_11" d="M109.02 271.49C109.02 271.49 117.17 266.49 121.5 265.98C125.83 265.47 130.84 265.04 135.18 264.43C139.52 263.82 145.03 262.13 144.92 259.89C144.81 257.65 144.3 256.58 141.75 255.25C139.561 254.004 137.142 253.215 134.64 252.93C132.73 252.78 113.19 257.25 105.04 267.93L101.75 271.45L109.02 271.49Z" fill="#BAC4F6"/>
<g id="Vector_12">
<path d="M137.21 259.01C137.21 259.01 129.73 258.92 125.62 260.1C122.433 261.142 119.325 262.412 116.32 263.9L105.45 271.2" fill="#BAC4F6"/>
<path d="M137.21 259.01C137.21 259.01 129.73 258.92 125.62 260.1C122.433 261.142 119.325 262.412 116.32 263.9L105.45 271.2" stroke="white" stroke-width="0.75" stroke-miterlimit="10" stroke-linecap="round"/>
</g>
<path id="Vector_13" d="M100.43 271.2C100.43 271.2 109.9 259.84 113.6 256.64C117.3 253.44 121.6 249.78 125.17 246.44C128.74 243.1 133.22 238.31 131.32 236.33C129.42 234.35 128.08 233.02 124.62 233.44C121.961 233.68 119.39 234.517 117.1 235.89C115.19 236.97 97.98 251.47 95.46 268.11L92.99 271.48L100.43 271.2Z" fill="#BAC4F6"/>
<path id="Vector_14" d="M122.71 240.17C122.71 240.17 115.33 244.06 112.43 247.77C109.69 251.27 105.36 257.52 105.36 257.52L100.43 269.44" stroke="white" stroke-width="0.75" stroke-miterlimit="10" stroke-linecap="round"/>
<path id="Vector_15" d="M95.71 271.77C95.71 271.77 106.78 250.56 108.84 246.36C110.9 242.16 119.36 235.88 121.23 231.58C123.1 227.28 124.29 224.18 122.33 221.84C120.37 219.5 115.26 217.54 112.02 218.94C108.96 220.26 105.02 224.27 103.27 226.3C101.91 227.91 92.85 256.71 93.59 263.37L91.86 271.88L95.71 271.77Z" fill="#E9EDFC"/>
<path id="Vector_16" d="M94.6401 271.5C94.6401 271.5 95.5301 250.8 97.6401 244.08C99.0701 239.63 100.47 232.08 102.34 227.83C104.21 223.58 101.34 217.99 99.42 215.64C97.5 213.29 92.4201 213.74 89.1401 215.13C86.0801 216.45 84.32 220.72 83.93 223C83.58 225.08 90.93 250.05 90.15 259.18L90.78 271.62L94.6401 271.5Z" fill="#BAC4F6"/>
<path id="Vector_17" d="M115.2 226.82C115.2 226.82 108.85 234.04 106.92 238.27C104.74 243.06 102.57 252.15 102.92 250.65L95.73 270.85" stroke="white" stroke-width="0.75" stroke-miterlimit="10" stroke-linecap="round"/>
<path id="Vector_18" d="M101.77 271.61C101.77 271.61 111.56 261.8 116.26 259.9C120.96 258 126.41 255.9 131.05 253.81C135.69 251.72 141.26 248.3 140.32 246.22C139.38 244.14 138.41 243.3 135.06 242.91C132.126 242.472 129.139 242.543 126.23 243.12C124.03 243.62 103.73 254.46 98.5 267.35L96.09 271.79L101.77 271.61Z" fill="#E9EDFC"/>
<path id="Vector_19" d="M131.35 247.98C131.35 247.98 122.92 250.42 118.74 252.92C115.575 254.96 112.551 257.212 109.69 259.66L100.15 270.24" stroke="white" stroke-width="0.75" stroke-miterlimit="10" stroke-linecap="round"/>
<path id="Vector_20" d="M92.62 219.55C92.62 219.55 94.32 237.28 93.33 242.05C92.92 244.05 93.12 256.52 93.12 256.52L92.71 270.33" stroke="white" stroke-width="0.75" stroke-miterlimit="10" stroke-linecap="round"/>
</g>
<g id="lamp">
<path id="Vector_21" d="M127.38 109.26L122.96 317.52C122.96 319.01 126.96 318.52 127.96 318.52H133.96L133.04 109.6L168.78 110.6L153.26 22.93C152.872 20.7298 151.721 18.7367 150.009 17.3011C148.297 15.8654 146.134 15.079 143.9 15.08H119.24C116.384 15.0721 113.616 16.0699 111.422 17.8984C109.228 19.7268 107.747 22.2693 107.24 25.08L92.13 108.61L127.38 109.26Z" fill="#E1E6FC"/>
<path id="Vector_22" d="M93 103.94L167.21 105.31L168.73 110.58L92.12 108.59L93 103.94Z" fill="#BAC4F6"/>
</g>
<g id="window">
<path id="Vector_23" d="M251.99 241.61C255.38 200.61 242.75 140.61 257.49 132.26C272.04 124.03 277 121.34 292.1 104.61C328.91 63.82 378.66 2.20001 434.38 0.140006C488.11 -1.85999 520.94 15.06 551.78 134.46C567.2 194.16 566.29 225.7 564.78 244.55C563.96 254.92 563.14 268.42 562.64 268.91C561.95 269.62 249.18 275.66 251.99 241.61Z" fill="#E9EDFC"/>
<path id="Vector_24" d="M457.87 116.83L457.26 262.64L549.86 262.89C549.86 262.89 550.53 186.1 546.86 112.56L458.06 111.23L457.87 116.83Z" fill="#BAC4F6"/>
<path id="Vector_25" d="M370.74 135.68L368.28 262.98H447.43L446.87 135.68H370.74Z" fill="#BAC4F6"/>
<path id="Vector_26" d="M255.8 210.38L369.56 210.97L368.28 262.98L256.23 262.94L255.8 210.38Z" fill="#BAC4F6"/>
<path id="Vector_27" d="M246.43 137L246.71 263.25C246.71 263.25 247.4 271.19 254.99 271.53C262.58 271.87 561.74 272 561.74 272C561.74 272 564.41 263.63 563.38 263.28C562.35 262.93 256.23 262.94 256.23 262.94C256.23 262.94 256.32 258.47 256.32 255.61C256.32 252.43 256.15 133.02 256.15 133.02C253.051 134.668 249.795 136.001 246.43 137V137Z" fill="white"/>
<path id="Vector_28" d="M253.03 149.54L555.72 151.35L557.32 157.91L253.03 159.37V149.54Z" fill="white"/>
<path id="Vector_29" d="M338.44 51.23V263.2L346.43 263.82V45.7L338.44 51.23Z" fill="white"/>
<path id="Vector_30" d="M483 8.58L482.82 263.2L490.2 262.59L491.35 13.55L483 8.58Z" fill="white"/>
<path id="Vector_31" d="M346.43 45.7L519.18 46.75L514.21 37.8L356.26 37.72L346.43 45.7Z" fill="white"/>
<path id="Vector_32" d="M375.55 87.45C385.248 87.45 393.11 79.5881 393.11 69.89C393.11 60.1919 385.248 52.33 375.55 52.33C365.852 52.33 357.99 60.1919 357.99 69.89C357.99 79.5881 365.852 87.45 375.55 87.45Z" fill="white"/>
<path id="Vector_33" d="M392.64 87.05C398.997 87.05 404.15 81.8968 404.15 75.54C404.15 69.1832 398.997 64.03 392.64 64.03C386.283 64.03 381.13 69.1832 381.13 75.54C381.13 81.8968 386.283 87.05 392.64 87.05Z" fill="white"/>
<path id="Vector_34" d="M508.76 103.98C518.64 103.98 526.65 95.9704 526.65 86.09C526.65 76.2096 518.64 68.2 508.76 68.2C498.88 68.2 490.87 76.2096 490.87 86.09C490.87 95.9704 498.88 103.98 508.76 103.98Z" fill="white"/>
<path id="Vector_35" d="M490.33 100.09C496.803 100.09 502.05 94.8428 502.05 88.37C502.05 81.8972 496.803 76.65 490.33 76.65C483.857 76.65 478.61 81.8972 478.61 88.37C478.61 94.8428 483.857 100.09 490.33 100.09Z" fill="white"/>
</g>
</g>
<defs>
<clipPath id="clip0_3_2">
<rect width="565.57" height="319.52" fill="white"/>
</clipPath>
</defs>
</svg>
